<?xml version="1.0" encoding="utf-8"?>
<!-- Generator: Adobe Illustrator 14.0.0, SVG Export Plug-In . SVG Version: 6.00 Build 43363)  -->
<!DOCTYPE svg PUBLIC "-//W3C//DTD SVG 1.0//EN" "http://www.w3.org/TR/2001/REC-SVG-20010904/DTD/svg10.dtd">
<svg version="1.0" id="Layer_1" xmlns="http://www.w3.org/2000/svg" xmlns:xlink="http://www.w3.org/1999/xlink" x="0px" y="0px"
	 width="50.204px" height="100px" viewBox="0 0 50.204 100" enable-background="new 0 0 50.204 100" xml:space="preserve">
<circle cx="26.574" cy="13.221" r="2.8"/>
<circle cx="18.459" cy="20.138" r="2.799"/>
<circle cx="27.773" cy="22.938" r="3.998"/>
<circle cx="34.175" cy="13.221" r="2.405"/>
<circle cx="34.175" cy="2.405" r="2.405"/>
<path d="M32.385,55.948l-0.001-22.804l1.183-2.652h-3.068l-1.083,2.476v23.688c0,0,16.543,31.751,17.819,36.344
	c0.595,2.141-1.809,4.03-4.03,4.03H7c-2.223,0-4.625-1.89-4.031-4.03c1.276-4.593,17.819-36.344,17.819-36.344V32.968l-1.083-2.476
	h-3.068l1.182,2.652l-0.001,22.804C17.819,55.948,0,91.028,0,93c0,3.859,3.14,7,7,7h36.204c3.859,0,7-3.141,7-7
	C50.204,91.028,32.385,55.948,32.385,55.948z"/>
<path d="M27.763,56.708V33.109h-5.322v23.599c0,0-17.589,34.9-17.589,36.222c0,2.588,2.079,2.619,4.667,2.619h15.583h15.583
	c2.587,0,4.666-0.031,4.666-2.619C45.352,91.608,27.763,56.708,27.763,56.708z"/>
</svg>
