<?xml version="1.0" encoding="utf-8"?>
<!-- Generator: Adobe Illustrator 14.0.0, SVG Export Plug-In . SVG Version: 6.00 Build 43363)  -->
<!DOCTYPE svg PUBLIC "-//W3C//DTD SVG 1.0//EN" "http://www.w3.org/TR/2001/REC-SVG-20010904/DTD/svg10.dtd">
<svg version="1.0" id="Layer_1" xmlns="http://www.w3.org/2000/svg" xmlns:xlink="http://www.w3.org/1999/xlink" x="0px" y="0px"
	 width="73.962px" height="100px" viewBox="0 0 73.962 100" enable-background="new 0 0 73.962 100" xml:space="preserve">
<path d="M65.973,16.295c-9.949,0-17.907,0-27.856,0c0-5.315,0-10.631,0-15.946c0-0.19-0.158-0.349-0.348-0.349
	c-1.745,0-3.489,0-5.234,0c-0.189,0-0.348,0.158-0.348,0.349c0,5.315,0,10.631,0,15.946c-7.106,0-16.203,0-23.31,0
	c-0.323,0-0.647,0-0.971,0H7.747c-0.035,0.01-0.069,0.02-0.106,0.048c-0.021,0.016-0.04,0.031-0.061,0.047
	c-0.001,0.001-0.003,0.002-0.004,0.003c-2.47,1.894-4.939,3.788-7.41,5.681c-0.222,0.169-0.222,0.432,0,0.602
	c2.491,1.91,4.983,3.821,7.475,5.731c0.034,0.025,0.07,0.04,0.105,0.047h0.12c0.226,0,0.451,0,0.677,0c19.143,0,38.286,0,57.43,0
	c0.096,0,0.168-0.036,0.223-0.086c0.008-0.005,0.015-0.01,0.022-0.017c0.007-0.008,0.012-0.017,0.019-0.025
	c0.049-0.054,0.085-0.125,0.085-0.22c0-3.821,0-7.641,0-11.462C66.321,16.454,66.163,16.295,65.973,16.295z"/>
<path d="M73.796,44.846c-2.471-1.894-4.94-3.788-7.41-5.681c-0.001-0.001-0.003-0.002-0.004-0.003
	c-0.021-0.016-0.04-0.031-0.061-0.047c-0.037-0.028-0.071-0.038-0.106-0.047h-0.159c-0.323,0-0.646,0-0.971,0
	c-7.106,0-19.862,0-26.969,0c0-3.136,0-6.271,0-9.407c0-0.19-0.158-0.349-0.348-0.349c-1.745,0-3.489,0-5.234,0
	c-0.189,0-0.348,0.159-0.348,0.349c0,3.136,0,6.271,0,9.407c-9.949,0-14.248,0-24.197,0c-0.189,0-0.349,0.158-0.349,0.348
	c0,3.821,0,7.641,0,11.462c0,0.095,0.036,0.166,0.085,0.22c0.007,0.009,0.012,0.018,0.019,0.025
	c0.008,0.007,0.015,0.012,0.022,0.017c0.055,0.051,0.127,0.087,0.223,0.087c19.144,0,38.287,0,57.43,0c0.226,0,0.451,0,0.677,0h0.12
	c0.036-0.008,0.071-0.022,0.105-0.048c2.491-1.91,4.983-3.821,7.475-5.731C74.018,45.278,74.018,45.016,73.796,44.846z"/>
<path d="M37.769,52.085c-1.745,0-3.489,0-5.234,0c-0.189,0-0.348,0.158-0.348,0.349c0,15.739,0,31.479,0,47.218
	c0,0.19,0.158,0.349,0.348,0.349c1.745,0,3.489,0,5.234,0c0.096,0,0.167-0.036,0.223-0.087c0.008-0.005,0.015-0.01,0.021-0.017
	c0.008-0.007,0.013-0.016,0.02-0.024c0.049-0.055,0.084-0.125,0.084-0.221c0-15.739,0-31.479,0-47.218
	C38.116,52.243,37.958,52.085,37.769,52.085z"/>
</svg>
