<?xml version="1.0" encoding="utf-8"?>
<!-- Generator: Adobe Illustrator 14.0.0, SVG Export Plug-In . SVG Version: 6.00 Build 43363)  -->
<!DOCTYPE svg PUBLIC "-//W3C//DTD SVG 1.0//EN" "http://www.w3.org/TR/2001/REC-SVG-20010904/DTD/svg10.dtd">
<svg version="1.0" id="Layer_1" xmlns="http://www.w3.org/2000/svg" xmlns:xlink="http://www.w3.org/1999/xlink" x="0px" y="0px"
	 width="100px" height="67.182px" viewBox="0 0 100 67.182" enable-background="new 0 0 100 67.182" xml:space="preserve">
<path d="M89.775,0C84.128,0,79.55,4.579,79.55,10.226c0,1.94,0.55,3.748,1.489,5.293l-8.483,8.483
	c-0.851-0.23-1.742-0.364-2.668-0.364c-0.924,0-1.815,0.134-2.668,0.364l-8.483-8.483c0.938-1.545,1.489-3.353,1.489-5.293
	C60.226,4.579,55.647,0,50,0c-5.647,0-10.226,4.579-10.226,10.226c0,1.94,0.551,3.748,1.49,5.293l-8.483,8.483
	c-0.852-0.23-1.744-0.364-2.668-0.364c-0.925,0-1.816,0.134-2.668,0.364l-8.483-8.483c0.938-1.545,1.489-3.353,1.489-5.293
	C20.451,4.579,15.873,0,10.226,0S0,4.579,0,10.226s4.579,10.226,10.226,10.226c1.94,0,3.748-0.55,5.293-1.489l7.525,7.524
	c-1.942,1.861-3.157,4.476-3.157,7.377c0,5.647,4.578,10.227,10.226,10.227c1.941,0,3.748-0.552,5.293-1.49l7.25,7.25
	c-1.781,1.841-2.882,4.344-2.882,7.106c0,5.647,4.579,10.226,10.226,10.226c5.647,0,10.226-4.578,10.226-10.226
	c0-2.763-1.101-5.266-2.881-7.105l7.25-7.251c1.546,0.938,3.353,1.49,5.293,1.49c5.648,0,10.226-4.579,10.226-10.227
	c0-2.901-1.215-5.516-3.156-7.377l7.524-7.524c1.545,0.939,3.354,1.489,5.294,1.489c5.646,0,10.225-4.579,10.225-10.226
	S95.422,0,89.775,0z M44.707,18.962c1.545,0.939,3.353,1.489,5.293,1.489s3.748-0.55,5.294-1.489l7.524,7.524
	c-1.941,1.861-3.155,4.476-3.155,7.377c0,1.94,0.551,3.749,1.488,5.294l-8.054,8.054c-0.978-0.31-2.018-0.479-3.098-0.479
	c-1.08,0-2.12,0.17-3.097,0.479l-8.054-8.054c0.939-1.545,1.489-3.354,1.489-5.294c0-2.901-1.214-5.516-3.157-7.377L44.707,18.962z"
	/>
</svg>
